<?xml version="1.0" standalone="no"?>
<!DOCTYPE svg PUBLIC "-//W3C//DTD SVG 20010904//EN"
 "http://www.w3.org/TR/2001/REC-SVG-20010904/DTD/svg10.dtd">
<svg version="1.0" xmlns="http://www.w3.org/2000/svg"
 width="1024.000000pt" height="1008.000000pt" viewBox="0 0 1024.000000 1008.000000"
 preserveAspectRatio="xMidYMid meet">

<g transform="translate(0.000000,1008.000000) scale(0.100000,-0.100000)"
fill="#000000" stroke="none">
<path d="M0 5423 l0 -4658 157 -3 c135 -2 160 -5 173 -20 9 -9 29 -56 45 -105
l29 -87 -20 -20 c-12 -12 -46 -25 -82 -32 -59 -11 -64 -10 -95 12 -17 13 -43
32 -57 42 -14 10 -53 29 -87 42 l-63 25 0 -310 0 -309 5120 0 5120 0 0 4170
c0 2294 -2 4170 -4 4170 -1 0 -50 -57 -107 -127 -57 -70 -138 -155 -179 -190
-122 -105 -427 -296 -524 -329 -90 -31 -203 -1 -233 61 -15 32 -15 39 -2 60 8
13 69 61 136 107 153 105 281 214 337 289 59 78 146 251 189 374 83 240 95
437 36 576 -38 87 -168 186 -306 234 -141 49 -264 67 -438 64 -88 -2 -177 1
-198 6 -33 7 -41 5 -65 -18 -15 -15 -69 -44 -119 -66 -170 -74 -340 -171 -522
-299 -76 -53 -112 -63 -144 -39 -23 17 -182 370 -222 492 -18 56 -40 116 -49
133 -22 43 -21 45 24 88 44 42 48 55 25 74 -12 10 -27 11 -60 3 -53 -12 -86 0
-186 70 -36 25 -126 74 -200 109 l-134 63 -451 3 -451 3 -12 -28 c-22 -47 -72
-103 -112 -123 -56 -29 -140 -27 -208 6 -143 66 -240 22 -272 -125 -6 -31 -25
-70 -45 -96 l-34 -45 26 -47 c24 -45 25 -54 19 -138 -4 -49 -13 -128 -20 -175
-7 -47 -27 -177 -45 -290 -17 -113 -35 -268 -40 -345 -8 -133 -11 -143 -45
-211 -35 -68 -36 -75 -25 -109 40 -121 -42 -292 -110 -230 -28 26 -29 139 0
195 26 50 25 70 -2 117 -23 38 -23 39 -26 568 -2 292 0 545 3 563 3 18 22 50
40 71 l35 38 -27 24 c-45 42 -53 76 -53 234 l0 145 -2720 0 -2720 0 0 -4657z
m6396 1881 c22 -52 17 -131 -16 -260 -24 -97 -29 -130 -24 -184 5 -55 3 -75
-15 -114 -26 -60 -27 -91 -1 -123 29 -38 25 -62 -19 -104 -51 -47 -89 -56
-138 -32 -46 22 -74 63 -97 139 -25 87 -52 140 -102 206 -25 32 -66 96 -90
143 -44 81 -45 86 -30 112 38 69 56 114 67 164 14 65 24 79 57 79 18 0 42 -17
83 -59 31 -32 66 -62 78 -66 39 -12 87 14 149 81 37 40 65 63 72 59 7 -4 18
-22 26 -41z m-4916 -1829 c25 -8 57 -25 72 -38 l28 -22 -56 -62 -55 -63 -31
23 c-44 33 -136 31 -172 -2 -53 -50 -18 -98 95 -132 41 -12 90 -30 110 -40
152 -76 145 -295 -11 -383 -52 -29 -60 -31 -165 -31 -100 0 -115 3 -166 27
-31 16 -63 36 -72 45 -14 17 -11 23 45 82 l59 63 22 -20 c81 -76 227 -58 227
28 0 37 -35 64 -115 89 -128 40 -179 72 -211 133 -18 34 -18 129 -1 171 55
129 229 187 397 132z m5031 0 c22 -8 54 -24 70 -36 l29 -21 -56 -64 -56 -64
-25 20 c-68 54 -203 27 -203 -40 0 -35 44 -67 121 -90 98 -29 139 -51 177 -94
36 -41 47 -87 39 -156 -11 -91 -64 -156 -156 -191 -81 -30 -215 -24 -292 14
-31 15 -63 35 -71 44 -15 17 -12 23 43 82 l59 64 23 -21 c74 -69 216 -57 225
20 5 41 -27 66 -132 103 -170 59 -211 105 -204 224 4 81 35 135 99 178 77 51
210 63 310 28z m845 14 c63 -11 154 -55 154 -73 0 -7 -24 -36 -54 -65 l-53
-53 -41 21 c-79 40 -182 14 -182 -46 0 -16 4 -33 8 -39 10 -16 58 -38 137 -64
90 -29 130 -53 160 -98 21 -31 25 -48 25 -107 -1 -168 -109 -253 -309 -243
-85 4 -145 26 -205 73 -22 17 -24 14 63 107 l33 36 40 -28 c74 -54 182 -46
210 15 10 22 8 30 -9 53 -18 25 -49 40 -175 86 -72 26 -111 57 -135 106 -67
131 27 287 190 320 60 11 76 11 143 -1z m1497 1 c134 -22 240 -100 295 -218
24 -51 27 -69 27 -167 0 -105 -2 -114 -33 -177 -65 -132 -173 -197 -339 -206
-111 -5 -202 19 -275 73 -184 136 -198 445 -27 599 66 60 169 100 269 105 14
0 51 -3 83 -9z m-7895 -87 l-3 -78 -167 -3 -168 -2 0 -65 0 -65 160 0 160 0 0
-75 0 -75 -160 0 -160 0 0 -75 0 -75 181 0 181 0 -6 -22 c-3 -13 -6 -47 -6
-75 l0 -53 -260 0 -260 0 0 370 0 370 255 0 256 0 -3 -77z m1242 -3 l0 -80
-165 0 -165 0 0 -70 0 -70 155 0 156 0 -3 -77 -3 -78 -152 -3 -153 -3 0 -139
0 -140 -85 0 -85 0 0 370 0 370 250 0 250 0 0 -80z m620 0 l0 -80 -165 0 -165
0 0 -65 0 -65 160 0 160 0 0 -75 0 -75 -160 0 -160 0 0 -75 0 -75 175 0 175 0
0 -75 0 -75 -260 0 -260 0 0 370 0 370 250 0 250 0 0 -80z m573 61 c45 -14
102 -62 124 -105 11 -20 17 -56 17 -101 1 -94 -31 -152 -103 -188 l-49 -24 89
-147 c49 -80 89 -149 89 -151 0 -3 -44 -5 -99 -5 l-98 0 -75 143 c-74 141 -74
142 -111 145 l-37 3 0 -145 0 -146 -85 0 -85 0 0 371 0 371 193 -5 c105 -2
209 -10 230 -16z m677 -6 c144 -44 224 -132 250 -275 15 -85 6 -161 -31 -236
-36 -75 -90 -126 -178 -168 l-66 -31 -202 -3 -203 -4 0 364 c0 201 3 368 8
372 14 15 363 -1 422 -19z m870 -55 l0 -80 -165 0 -165 0 0 -65 0 -65 160 0
160 0 0 -75 0 -75 -160 0 -160 0 0 -75 0 -75 175 0 175 0 0 -75 0 -75 -260 0
-260 0 0 370 0 370 250 0 250 0 0 -80z m326 -85 c34 -88 74 -195 91 -238 l29
-79 91 239 91 238 92 3 c54 2 91 -1 88 -7 -1 -5 -70 -172 -153 -370 l-149
-362 -70 3 -70 3 -143 355 c-78 195 -142 361 -143 368 0 10 22 12 93 10 l92
-3 61 -160z m750 150 c-3 -8 -24 -76 -47 -150 l-43 -135 -68 0 c-45 0 -68 4
-68 12 0 6 16 73 36 150 l37 138 80 0 c66 0 78 -2 73 -15z m1784 -125 l0 -140
155 0 155 0 0 140 0 141 83 -3 82 -3 3 -367 2 -368 -85 0 -85 0 0 155 0 155
-155 0 -155 0 0 -155 0 -155 -85 0 -85 0 0 370 0 370 85 0 85 0 0 -140z m1902
120 c50 -18 108 -66 124 -106 18 -43 18 -165 0 -207 -17 -42 -76 -93 -123
-107 -21 -6 -87 -14 -146 -17 l-108 -6 2 -139 2 -140 -82 0 -82 0 -2 169 c-1
92 0 260 1 372 l2 203 188 -5 c113 -3 202 -10 224 -17z m-443 -780 c24 -17 50
-30 57 -30 31 0 21 -23 -36 -81 -64 -65 -78 -96 -64 -138 7 -20 20 -29 54 -37
29 -7 46 -17 48 -28 7 -32 -81 -150 -208 -281 -156 -162 -243 -260 -253 -287
-5 -13 -2 -29 7 -44 15 -21 13 -25 -40 -78 -72 -74 -104 -122 -104 -157 0 -18
-7 -32 -20 -39 -17 -9 -20 -6 -29 27 -65 247 -60 286 73 575 46 101 88 197 92
213 4 17 18 55 31 85 14 30 29 80 34 110 5 30 21 79 37 109 38 73 89 101 185
100 37 -1 71 2 74 5 10 10 16 7 62 -24z m-94 -1250 c-3 -5 -10 -10 -16 -10 -5
0 -9 5 -9 10 0 6 7 10 16 10 8 0 12 -4 9 -10z m-527 -417 c2 -7 -6 -21 -18
-33 -31 -31 -50 -11 -26 25 17 26 36 29 44 8z m-2342 -128 c14 -21 16 -47 12
-154 -3 -123 -5 -130 -33 -172 -17 -23 -56 -61 -88 -83 -32 -23 -83 -62 -113
-88 -88 -77 -120 -68 -276 75 -104 96 -110 117 -50 167 20 17 102 63 181 102
79 39 187 95 240 124 53 30 99 54 103 54 4 0 15 -11 24 -25z m2658 0 c14 -9
26 -20 26 -24 0 -4 -22 -33 -49 -65 -47 -56 -73 -111 -101 -216 -17 -67 -58
-142 -101 -187 -21 -22 -70 -98 -110 -169 -39 -71 -98 -169 -130 -219 -33 -49
-62 -106 -65 -125 -9 -57 -21 -78 -61 -103 -60 -39 -72 -57 -76 -120 -2 -31
-6 -59 -8 -61 -10 -10 -38 -9 -87 2 -71 16 -117 15 -135 -2 -8 -8 -18 -40 -22
-70 l-6 -56 -49 0 c-41 0 -56 -6 -100 -41 -51 -40 -54 -41 -108 -35 -31 4 -58
8 -60 10 -11 11 27 52 97 106 58 44 81 67 86 89 3 17 25 58 47 93 23 35 57 97
76 138 20 41 61 122 93 180 32 58 103 205 158 328 56 122 123 255 149 295 27
40 59 94 71 120 44 92 109 130 251 150 66 9 188 -1 214 -18z m-1765 -1504 c13
-8 13 -15 1 -50 -18 -56 -48 -81 -103 -86 -88 -9 -193 -60 -294 -143 -49 -41
-122 -84 -267 -160 -50 -26 -77 -8 -99 68 -11 36 -28 92 -38 125 -18 57 -18
61 -1 76 9 9 100 45 201 79 l184 62 84 -17 c95 -20 145 -16 206 15 70 37 103
45 126 31z m-926 -190 c17 -17 18 -22 3 -94 -9 -42 -16 -96 -16 -120 0 -81
-38 -139 -108 -167 -25 -10 -35 -10 -47 0 -24 20 -38 90 -32 156 6 67 48 187
75 217 36 40 89 43 125 8z m-5431 -486 c85 -18 118 -43 118 -90 0 -33 -32 -85
-52 -85 -6 0 -33 14 -59 31 -66 42 -98 38 -116 -17 -21 -63 -47 -69 -158 -40
-91 25 -115 42 -115 81 0 48 57 85 131 85 14 0 40 11 59 25 40 30 85 32 192
10z"/>
<path d="M6138 6941 c-112 -71 -65 -197 72 -189 41 3 47 6 64 42 11 22 21 61
24 87 3 38 0 51 -17 68 -31 31 -86 28 -143 -8z"/>
<path d="M8696 5325 c-85 -30 -140 -117 -139 -220 1 -142 86 -229 223 -229
139 0 223 88 223 234 1 167 -149 272 -307 215z"/>
<path d="M3140 5256 l0 -86 63 0 c118 0 162 26 155 92 -5 48 -39 66 -135 74
l-83 7 0 -87z"/>
<path d="M3810 5104 l0 -216 89 4 c169 8 251 77 251 212 -1 145 -87 216 -261
216 l-79 0 0 -216z"/>
<path d="M9458 5334 c-5 -4 -8 -43 -8 -86 l0 -78 78 0 c42 0 88 6 102 13 51
26 51 109 0 134 -31 14 -162 28 -172 17z"/>
<path d="M9860 10074 c0 -16 82 -36 154 -37 64 -1 90 4 126 21 l45 22 -162 0
c-90 0 -163 -2 -163 -6z"/>
<path d="M8881 9981 c-26 -36 -27 -63 -3 -84 26 -24 47 -21 71 9 26 33 27 66
3 87 -27 25 -48 21 -71 -12z"/>
</g>
</svg>
